<?xml version="1.0" encoding="utf-8"?>
<!-- Generator: Adobe Illustrator 25.2.1, SVG Export Plug-In . SVG Version: 6.00 Build 0)  -->
<svg version="1.1" id="Capa_1" xmlns="http://www.w3.org/2000/svg" xmlns:xlink="http://www.w3.org/1999/xlink" x="0px" y="0px"
	 viewBox="0 0 500 367" style="enable-background:new 0 0 500 367;" xml:space="preserve">
<style type="text/css">
	.st0{fill:#FFFFFF;}
</style>
<g>
	<g>
		<path class="st0" d="M279.77,38.7H257.1v-12.9c0-3.91-3.18-7.08-7.1-7.08c-3.92,0-7.1,3.17-7.1,7.08v12.9h-22.67
			c-3.92,0-7.1,3.17-7.1,7.08c0,3.91,3.18,7.08,7.1,7.08h22.67v24.39c0,3.91,3.18,7.08,7.1,7.08c3.92,0,7.1-3.17,7.1-7.08V52.85
			h22.67c3.92,0,7.1-3.17,7.1-7.08C286.87,41.87,283.69,38.7,279.77,38.7z"/>
		<path class="st0" d="M323.56,99.78c-14.13-14.06-35.56-19.14-54.54-12.94c-4.61,1.5-9.01,3.64-13.03,6.33
			c-1.05,0.7-2.06,1.44-3.06,2.2c-0.49,0.38-2.28,2.38-2.92,2.43c-0.45,0.03-2.15-1.83-2.59-2.17c-1.1-0.86-2.22-1.68-3.39-2.46
			c-8.34-5.59-18.22-8.69-28.27-8.96c-19.76-0.53-38.65,10.18-48.3,27.38c-9.62,17.17-8.79,38.98,2.12,55.36
			c1.29,1.95,2.72,3.81,4.26,5.57c0.82,0.95,1.68,1.86,2.56,2.75c1.15,1.15,1.18,1.5,1.3,3.05c0.34,4.1,2.18,7.99,5.11,10.89
			c1.28,1.26,2.76,2.33,4.36,3.14c0.92,0.47,1.87,0.84,2.85,1.14c0.76,0.23,2.81,0.23,3.42,0.66c0.75,0.53,0.65,4.01,1.04,5.31
			c0.57,1.94,1.47,3.78,2.67,5.41c2.39,3.26,5.92,5.63,9.86,6.6c1.01,0.26,2.06,0.4,3.11,0.47c1.27,0.07,1.14-0.22,1.6,0.75
			c0.35,0.75,0.31,1.93,0.54,2.75c0.31,1.1,0.74,2.17,1.26,3.19c1.87,3.63,5.03,6.55,8.81,8.11c0.85,0.35,1.73,0.64,2.63,0.85
			c0.51,0.12,2.51,0.12,2.8,0.43c0.21,0.22,0.12,2.51,0.17,2.92c0.16,1.14,0.44,2.25,0.82,3.33c2.71,7.64,10.7,12.5,18.77,11.38
			c6.6-0.9,10.67-5.66,15.08-10.06c1.82-1.81,3.63-3.62,5.46-5.44c0.46-0.46,0.94-0.9,1.39-1.37c0.87-0.92,1.63-1.89,2.29-2.97
			c0.29-0.47,0.56-0.96,0.8-1.46c0.5-1.03,0.69-1.02,1.61-1.61c4.1-2.64,7.42-5.24,9.09-10.05c0.38-1.11,0.65-2.26,0.8-3.43
			c0.23-1.84-0.19-1.87,1.75-2.06c2.35-0.24,4.66-0.97,6.72-2.13c4.31-2.42,7.46-6.64,8.5-11.45c0.16-0.75,0.1-2.14,0.58-2.46
			c0.53-0.36,2.52-0.16,3.23-0.3c2.49-0.47,4.86-1.48,6.91-2.96c1.7-1.21,3.31-2.77,4.39-4.57c1.3-2.18,2.72-3.48,4.58-5.25
			c3.53-3.36,6.82-6.92,9.52-10.98c11.08-16.63,12.03-38.59,2.06-55.96C329.91,107,326.96,103.17,323.56,99.78z M199.72,181.09
			c-5.71,6.27-14.75-2.7-8.88-8.87c2.57-2.7,5.3-5.28,7.95-7.92c3.12-3.11,6.99-7.69,11.75-4.2c2.83,2.08,3.36,6.12,1.25,8.89
			c-1,1.31-2.37,2.44-3.54,3.6C205.42,175.43,202.57,178.26,199.72,181.09z M215.87,198.85c-5.62,6.17-14.64-2.5-9.07-8.67
			c2.48-2.76,5.3-5.28,7.93-7.9c3.06-3.04,6.6-7.57,11.41-4.77c3.26,1.89,4.07,6.29,1.79,9.25c-0.93,1.21-2.18,2.25-3.27,3.33
			C221.73,192.99,218.8,195.92,215.87,198.85z M229.02,216.99c-3.43,0-6.29-2.86-6.29-6.27c0-2.32,1.3-3.89,2.84-5.42
			c3.08-3.07,6.15-6.13,9.23-9.2c1.27-1.27,2.45-2.61,4.25-3.12c3.33-0.94,6.91,1.05,7.81,4.41c1.24,4.61-3.57,7.96-6.43,10.83
			C237.61,211.02,233.42,216.99,229.02,216.99z M261.15,221.39c-2.44,2.43-4.86,4.84-7.3,7.27c-3.07,3.05-6.66,7.92-11.58,5.36
			c-3.17-1.65-4.37-5.73-2.5-8.79c0.77-1.27,2.08-2.34,3.13-3.38c2.99-2.98,5.94-6.04,8.99-8.96c2.26-2.17,5.26-3.27,8.19-1.55
			C263.69,213.43,264.24,218.58,261.15,221.39z M306.05,178.25c-3.18,3.17-7.19,1.64-9.9-0.87c-2.79-2.57-5.39-5.38-8.08-8.05
			c-4.07-4.06-8.13-8.1-12.2-12.16c-1.41-1.41-2.8-3.03-4.43-4.2c-4.72-3.4-11.42,2.41-7.97,7.39c1.35,1.94,3.4,3.66,5.06,5.33
			c2.61,2.6,5.22,5.19,7.83,7.8c3.71,3.69,7.3,7.58,11.15,11.11c1.82,1.66,3.1,3.48,2.75,6.09c-0.45,3.38-3.65,5.78-7.03,5.51
			c-3.55-0.29-6.21-4.1-8.55-6.43c-3.76-3.75-7.54-7.48-11.36-11.19c-2.48-2.41-4.96-4.81-7.37-7.28c-1.91-1.96-4.01-3.34-6.84-2.22
			c-2.84,1.12-4.26,4.43-3.1,7.25c0.78,1.92,3.24,3.77,4.69,5.21c3.1,3.1,6.21,6.18,9.3,9.27c2.89,2.88,5.8,5.77,8.7,8.65
			c2.62,2.6,5.95,5.76,3.92,9.8c-2.21-4.6-6.45-8.07-11.42-9.32c-0.67-0.17-1.52-0.16-2.15-0.4c-0.85-0.34-0.44,0.15-0.88-0.54
			c-0.49-0.77-0.34-3.58-0.62-4.59c-0.67-2.46-1.91-4.76-3.58-6.7c-3.1-3.6-7.63-5.81-12.39-6.04c-1.85-0.09-1.24-0.79-1.65-2.55
			c-0.25-1.09-0.6-2.16-1.05-3.17c-1.07-2.41-2.69-4.57-4.7-6.27c-1.88-1.59-4.08-2.76-6.44-3.44c-0.63-0.18-3.17-0.21-3.54-0.63
			c-0.3-0.34-0.19-3.08-0.29-3.6c-0.8-4.32-3.28-8.24-6.84-10.84c-7.34-5.36-16.89-3.84-23.16,2.32
			c-3.92,3.85-8.03,7.63-11.73,11.71c-11.37-13.06-13.55-32.36-5.41-47.61c7.35-13.77,22.07-22.42,37.7-22.33
			c10.06,0.05,19.91,3.73,27.53,10.29c-4.11,4.1-8.24,8.21-12.35,12.3c-4.06,4.04-9.46,8.11-12.17,13.23
			c-6.95,13.16,5.37,28.15,19.6,24.91c6.88-1.56,11.69-7.79,16.5-12.58c4.47-4.45,8.91-8.85,13.37-13.31
			c12.14,12.21,24.28,24.42,36.42,36.63C306.5,169.84,310.3,174.03,306.05,178.25z M317.13,165.99c-2.47-4.89-7.72-8.92-11.53-12.72
			c-6.55-6.54-13.1-13.08-19.66-19.62c-4.66-4.65-9.37-9.24-13.97-13.94c-2.16-2.2-5.11-4.09-8.12-1.93
			c-2.06,1.48-3.85,3.71-5.65,5.47c-6.14,6-12.26,12.02-18.38,18.04c-2.47,2.43-4.95,5.26-8.88,4.03c-3.37-1.05-5.26-4.76-4.14-8.09
			c0.51-1.54,1.57-2.58,2.68-3.68c5.92-5.9,11.84-11.8,17.7-17.75c5.43-5.49,10.91-11.28,17.71-15.11c6.75-3.8,14.5-5.66,22.24-5.42
			c13.94,0.45,26.98,7.78,34.46,19.53c7.98,12.54,8.67,28.92,1.84,42.11C321.75,160.2,319.62,163.27,317.13,165.99z"/>
	</g>
	<g>
		<path class="st0" d="M137.89,298.79v-35.38h23.96v4.17h-19.26v10.96h16.66v4.17h-16.66v16.07H137.89z"/>
		<path class="st0" d="M184.26,298.79v-3.77c-2.01,2.9-4.72,4.34-8.16,4.34c-1.52,0-2.94-0.29-4.25-0.87
			c-1.31-0.57-2.3-1.31-2.93-2.18c-0.64-0.87-1.09-1.95-1.35-3.23c-0.18-0.85-0.27-2.2-0.27-4.06v-15.87h4.36v14.22
			c0,2.27,0.09,3.8,0.27,4.59c0.28,1.14,0.85,2.04,1.74,2.69c0.89,0.65,1.99,0.98,3.29,0.98c1.3,0,2.53-0.33,3.69-1
			c1.14-0.67,1.95-1.58,2.44-2.72c0.48-1.15,0.72-2.82,0.72-5.01v-13.73h4.36v25.64h-3.9V298.79z"/>
		<path class="st0" d="M195,298.79v-25.63h3.92v3.64c1.89-2.82,4.62-4.23,8.19-4.23c1.55,0,2.98,0.28,4.27,0.83
			c1.3,0.55,2.27,1.29,2.91,2.18c0.64,0.9,1.1,1.97,1.36,3.21c0.16,0.81,0.25,2.21,0.25,4.23v15.76h-4.36v-15.59
			c0-1.77-0.17-3.1-0.51-3.97c-0.34-0.87-0.94-1.58-1.81-2.1c-0.87-0.52-1.88-0.79-3.04-0.79c-1.86,0-3.46,0.59-4.81,1.77
			c-1.34,1.17-2.02,3.41-2.02,6.68v14H195z"/>
		<path class="st0" d="M239.27,298.79v-3.24c-1.63,2.54-4.03,3.81-7.2,3.81c-2.05,0-3.94-0.56-5.66-1.69c-1.72-1.13-3.06-2.7-4-4.72
			c-0.94-2.02-1.42-4.34-1.42-6.96c0-2.55,0.43-4.88,1.28-6.96c0.86-2.09,2.14-3.68,3.86-4.79c1.71-1.11,3.62-1.66,5.75-1.66
			c1.55,0,2.93,0.33,4.14,0.98c1.21,0.65,2.2,1.5,2.96,2.54v-12.7h4.34v35.39h-4.05V298.79z M225.5,285.99
			c0,3.28,0.69,5.74,2.08,7.37c1.39,1.63,3.02,2.44,4.91,2.44c1.9,0,3.52-0.78,4.86-2.33c1.34-1.55,2-3.93,2-7.11
			c0-3.51-0.67-6.08-2.04-7.73c-1.35-1.64-3.02-2.46-5.01-2.46c-1.94,0-3.56,0.79-4.86,2.36C226.15,280.12,225.5,282.6,225.5,285.99
			z"/>
		<path class="st0" d="M266.97,295.63c-1.61,1.37-3.17,2.33-4.67,2.9c-1.5,0.56-3.1,0.84-4.81,0.84c-2.83,0-5-0.69-6.52-2.06
			c-1.52-1.37-2.28-3.13-2.28-5.28c0-1.26,0.29-2.41,0.86-3.44c0.58-1.04,1.32-1.87,2.25-2.5c0.93-0.63,1.98-1.11,3.14-1.43
			c0.86-0.22,2.15-0.45,3.88-0.65c3.52-0.42,6.11-0.92,7.78-1.5c0.01-0.6,0.02-0.97,0.02-1.14c0-1.77-0.42-3.01-1.24-3.75
			c-1.11-0.98-2.77-1.47-4.97-1.47c-2.05,0-3.57,0.36-4.54,1.08c-0.98,0.71-1.7,1.98-2.17,3.8l-4.26-0.57
			c0.39-1.82,1.03-3.29,1.91-4.41c0.89-1.12,2.17-1.98,3.86-2.59c1.68-0.61,3.62-0.9,5.84-0.9c2.2,0,3.98,0.26,5.35,0.78
			c1.38,0.51,2.38,1.16,3.02,1.95c0.64,0.78,1.1,1.77,1.36,2.96c0.15,0.75,0.21,2.08,0.21,4v5.79c0,4.04,0.1,6.6,0.28,7.66
			c0.18,1.08,0.56,2.1,1.1,3.08h-4.55C267.39,297.89,267.1,296.84,266.97,295.63z M266.61,285.93c-1.58,0.64-3.95,1.19-7.13,1.64
			c-1.79,0.26-3.07,0.54-3.8,0.87c-0.75,0.32-1.31,0.79-1.72,1.42c-0.41,0.62-0.61,1.31-0.61,2.06c0,1.16,0.44,2.13,1.32,2.9
			c0.89,0.77,2.17,1.16,3.87,1.16c1.68,0,3.17-0.36,4.49-1.1c1.3-0.73,2.26-1.74,2.88-3c0.47-0.98,0.7-2.43,0.7-4.34v-1.61H266.61z"
			/>
		<path class="st0" d="M294.57,289.4l4.28,0.55c-0.47,2.95-1.67,5.25-3.6,6.92c-1.94,1.66-4.31,2.5-7.11,2.5
			c-3.53,0-6.36-1.15-8.49-3.44c-2.14-2.29-3.21-5.58-3.21-9.86c0-2.77,0.46-5.19,1.38-7.27c0.92-2.08,2.32-3.63,4.2-4.67
			c1.88-1.04,3.93-1.55,6.14-1.55c2.8,0,5.07,0.7,6.86,2.11c1.77,1.41,2.92,3.41,3.42,6l-4.24,0.65c-0.41-1.72-1.12-3.01-2.15-3.88
			c-1.02-0.87-2.26-1.3-3.72-1.3c-2.2,0-3.98,0.79-5.35,2.35c-1.37,1.56-2.06,4.06-2.06,7.45c0,3.45,0.66,5.95,1.99,7.5
			c1.32,1.56,3.06,2.34,5.18,2.34c1.71,0,3.14-0.52,4.28-1.56C293.53,293.18,294.26,291.57,294.57,289.4z"/>
		<path class="st0" d="M302.61,268.4v-4.99h4.36v4.99H302.61z M302.61,298.79v-25.63h4.36v25.64h-4.36V298.79z"/>
		<path class="st0" d="M311.99,285.97c0-4.75,1.32-8.26,3.97-10.55c2.21-1.89,4.91-2.85,8.1-2.85c3.53,0,6.43,1.15,8.67,3.46
			c2.24,2.31,3.36,5.5,3.36,9.57c0,3.3-0.49,5.9-1.48,7.78c-0.99,1.89-2.44,3.36-4.34,4.41c-1.9,1.04-3.97,1.56-6.22,1.56
			c-3.6,0-6.52-1.15-8.74-3.45C313.1,293.61,311.99,290.3,311.99,285.97z M316.47,285.97c0,3.28,0.72,5.74,2.16,7.38
			c1.43,1.63,3.25,2.45,5.42,2.45c2.17,0,3.96-0.82,5.41-2.46c1.43-1.64,2.16-4.14,2.16-7.5c0-3.17-0.73-5.58-2.17-7.21
			c-1.44-1.63-3.25-2.45-5.4-2.45c-2.18,0-3.99,0.81-5.42,2.44C317.18,280.24,316.47,282.69,316.47,285.97z M321.63,269.96
			l3.23-6.76h5.71l-5.33,6.76H321.63z"/>
		<path class="st0" d="M341.21,298.79v-25.63h3.92v3.64c1.89-2.82,4.61-4.23,8.19-4.23c1.55,0,2.98,0.28,4.27,0.83
			c1.3,0.55,2.28,1.29,2.92,2.18c0.64,0.9,1.1,1.97,1.36,3.21c0.16,0.81,0.24,2.21,0.24,4.23v15.76h-4.36v-15.59
			c0-1.77-0.17-3.1-0.51-3.97c-0.34-0.87-0.94-1.58-1.8-2.1s-1.88-0.79-3.05-0.79c-1.86,0-3.46,0.59-4.81,1.77
			c-1.35,1.17-2.02,3.41-2.02,6.68v14H341.21z"/>
	</g>
	<g>
		<path class="st0" d="M27.29,342.81l-5.22-20.69v22.42c0,1.25-0.28,2.17-0.83,2.79c-0.56,0.62-1.29,0.93-2.21,0.93
			c-0.89,0-1.61-0.31-2.18-0.92c-0.57-0.61-0.84-1.54-0.84-2.8v-25.7c0-1.42,0.37-2.37,1.11-2.87c0.74-0.49,1.74-0.75,3-0.75h2.05
			c1.23,0,2.13,0.11,2.68,0.33c0.56,0.22,0.97,0.62,1.24,1.19c0.27,0.57,0.57,1.51,0.91,2.81l4.73,17.79l4.73-17.79
			c0.34-1.3,0.64-2.24,0.91-2.81c0.27-0.57,0.67-0.98,1.24-1.19c0.56-0.22,1.45-0.33,2.68-0.33h2.05c1.26,0,2.26,0.24,3,0.75
			c0.74,0.5,1.11,1.45,1.11,2.87v25.7c0,1.25-0.28,2.17-0.83,2.79c-0.56,0.62-1.3,0.93-2.23,0.93c-0.88,0-1.59-0.31-2.16-0.93
			c-0.57-0.62-0.84-1.55-0.84-2.79v-22.42l-5.22,20.69c-0.34,1.34-0.62,2.33-0.83,2.96c-0.21,0.63-0.61,1.2-1.19,1.71
			c-0.58,0.52-1.38,0.78-2.4,0.78c-0.77,0-1.42-0.17-1.95-0.5c-0.53-0.33-0.95-0.76-1.25-1.28c-0.3-0.52-0.53-1.09-0.7-1.71
			C27.64,344.14,27.47,343.49,27.29,342.81z"/>
		<path class="st0" d="M56.87,320.86c-0.84,0-1.57-0.26-2.17-0.78c-0.6-0.52-0.9-1.25-0.9-2.19c0-0.85,0.31-1.56,0.92-2.12
			c0.62-0.55,1.34-0.83,2.15-0.83c0.79,0,1.48,0.26,2.09,0.76c0.61,0.5,0.91,1.23,0.91,2.19c0,0.93-0.3,1.66-0.89,2.18
			C58.38,320.6,57.68,320.86,56.87,320.86z M59.87,327.11v17.48c0,1.21-0.29,2.13-0.87,2.75c-0.58,0.62-1.31,0.93-2.2,0.93
			s-1.61-0.32-2.17-0.96c-0.56-0.64-0.83-1.54-0.83-2.72v-17.31c0-1.19,0.28-2.1,0.83-2.7c0.56-0.61,1.28-0.9,2.17-0.9
			s1.62,0.3,2.2,0.9C59.58,325.19,59.87,326.03,59.87,327.11z"/>
		<path class="st0" d="M85.67,340.35c0,1.67-0.4,3.1-1.22,4.29c-0.81,1.19-2.02,2.09-3.61,2.7c-1.59,0.62-3.54,0.92-5.81,0.92
			c-2.18,0-4.05-0.33-5.61-1c-1.56-0.66-2.7-1.49-3.45-2.49c-0.74-1-1.11-2-1.11-3c0-0.66,0.24-1.23,0.72-1.7
			c0.47-0.47,1.08-0.71,1.81-0.71c0.64,0,1.12,0.16,1.46,0.47c0.34,0.31,0.66,0.75,0.98,1.31c0.62,1.08,1.37,1.88,2.23,2.42
			c0.87,0.53,2.05,0.8,3.55,0.8c1.22,0,2.21-0.27,2.99-0.81c0.78-0.54,1.16-1.16,1.16-1.85c0-1.06-0.41-1.84-1.21-2.33
			c-0.81-0.49-2.14-0.96-4-1.39c-2.09-0.52-3.79-1.06-5.11-1.63c-1.31-0.56-2.36-1.32-3.15-2.25c-0.79-0.93-1.17-2.08-1.17-3.44
			c0-1.21,0.36-2.35,1.09-3.44c0.73-1.08,1.8-1.94,3.22-2.59c1.42-0.64,3.12-0.97,5.13-0.97c1.57,0,2.98,0.16,4.23,0.49
			c1.25,0.33,2.3,0.76,3.14,1.31c0.83,0.54,1.47,1.15,1.91,1.82c0.44,0.66,0.65,1.32,0.65,1.95c0,0.69-0.23,1.27-0.71,1.7
			c-0.47,0.44-1.13,0.66-1.99,0.66c-0.62,0-1.16-0.18-1.59-0.53c-0.44-0.35-0.94-0.88-1.5-1.6c-0.46-0.6-1-1.06-1.62-1.42
			c-0.62-0.35-1.47-0.53-2.53-0.53c-1.1,0-2.01,0.23-2.73,0.7c-0.73,0.47-1.09,1.04-1.09,1.73c0,0.64,0.27,1.16,0.8,1.56
			s1.25,0.75,2.16,1.01c0.91,0.27,2.15,0.6,3.74,0.98c1.88,0.46,3.42,1,4.61,1.64c1.2,0.64,2.09,1.38,2.71,2.25
			C85.37,338.27,85.67,339.25,85.67,340.35z"/>
		<path class="st0" d="M93.88,320.86c-0.84,0-1.57-0.26-2.17-0.78c-0.6-0.52-0.9-1.25-0.9-2.19c0-0.85,0.31-1.56,0.92-2.12
			c0.62-0.55,1.33-0.83,2.15-0.83c0.79,0,1.49,0.26,2.09,0.76c0.61,0.5,0.91,1.23,0.91,2.19c0,0.93-0.3,1.66-0.89,2.18
			C95.41,320.6,94.7,320.86,93.88,320.86z M96.88,327.11v17.48c0,1.21-0.29,2.13-0.87,2.75c-0.58,0.62-1.31,0.93-2.2,0.93
			c-0.89,0-1.61-0.32-2.17-0.96c-0.56-0.64-0.83-1.54-0.83-2.72v-17.31c0-1.19,0.28-2.1,0.83-2.7c0.56-0.61,1.28-0.9,2.17-0.9
			c0.89,0,1.62,0.3,2.2,0.9C96.59,325.19,96.88,326.03,96.88,327.11z"/>
		<path class="st0" d="M125.87,335.97c0,1.8-0.28,3.46-0.85,4.98c-0.57,1.52-1.38,2.83-2.44,3.92c-1.07,1.09-2.34,1.93-3.82,2.51
			c-1.48,0.59-3.15,0.87-5,0.87c-1.84,0-3.49-0.3-4.96-0.88c-1.46-0.6-2.73-1.44-3.81-2.53c-1.08-1.1-1.89-2.4-2.44-3.9
			c-0.56-1.5-0.83-3.16-0.83-4.97c0-1.83,0.28-3.51,0.84-5.02c0.57-1.51,1.37-2.82,2.42-3.9s2.33-1.91,3.82-2.49
			c1.5-0.59,3.15-0.87,4.96-0.87c1.84,0,3.5,0.3,5,0.88c1.5,0.6,2.78,1.44,3.85,2.52c1.07,1.09,1.88,2.39,2.44,3.9
			C125.6,332.49,125.87,334.15,125.87,335.97z M119.79,335.97c0-2.47-0.54-4.39-1.63-5.76c-1.09-1.37-2.55-2.06-4.39-2.06
			c-1.19,0-2.23,0.31-3.13,0.92c-0.91,0.62-1.6,1.52-2.09,2.71c-0.49,1.19-0.74,2.6-0.74,4.18s0.24,2.96,0.73,4.14
			c0.48,1.18,1.18,2.09,2.07,2.71c0.9,0.63,1.96,0.94,3.17,0.94c1.84,0,3.3-0.69,4.39-2.08
			C119.24,340.31,119.79,338.41,119.79,335.97z M114.46,314.99h3c0.76,0,1.13,0.11,1.13,0.33c0,0.12-0.42,0.6-1.25,1.44
			c-0.83,0.84-1.67,1.65-2.51,2.42c-0.84,0.77-1.43,1.23-1.75,1.39c-0.85,0.43-1.75,0.64-2.71,0.64c-0.64,0-0.96-0.18-0.96-0.55
			c0-0.26,0.19-0.69,0.58-1.31l1-1.86c0.58-1.08,1.08-1.77,1.52-2.06C112.93,315.14,113.58,314.99,114.46,314.99z"/>
		<path class="st0" d="M136.17,327.02v0.73c1.07-1.41,2.23-2.44,3.5-3.09c1.27-0.66,2.72-0.99,4.37-0.99c1.6,0,3.03,0.35,4.29,1.04
			c1.26,0.69,2.2,1.67,2.82,2.95c0.41,0.73,0.66,1.53,0.78,2.4c0.12,0.85,0.18,1.95,0.18,3.28v11.25c0,1.21-0.28,2.13-0.83,2.75
			c-0.56,0.62-1.28,0.93-2.17,0.93c-0.91,0-1.63-0.32-2.2-0.96c-0.57-0.64-0.85-1.54-0.85-2.72V334.5c0-1.99-0.28-3.52-0.83-4.58
			c-0.56-1.05-1.67-1.59-3.32-1.59c-1.08,0-2.07,0.32-2.96,0.97c-0.89,0.64-1.54,1.52-1.96,2.65c-0.3,0.9-0.45,2.59-0.45,5.06v7.58
			c0,1.22-0.29,2.15-0.86,2.76c-0.57,0.61-1.3,0.92-2.21,0.92c-0.88,0-1.59-0.32-2.16-0.96c-0.57-0.64-0.84-1.54-0.84-2.72V327.1
			c0-1.15,0.26-2.01,0.76-2.58c0.5-0.56,1.2-0.85,2.07-0.85c0.53,0,1.01,0.13,1.44,0.37c0.43,0.24,0.77,0.63,1.03,1.13
			C136.05,325.69,136.17,326.29,136.17,327.02z"/>
		<path class="st0" d="M186.18,344.81v-0.6c-0.81,0.93-1.62,1.69-2.41,2.27c-0.79,0.59-1.66,1.02-2.58,1.33
			c-0.92,0.31-1.93,0.46-3.03,0.46c-1.45,0-2.8-0.31-4.04-0.92c-1.24-0.61-2.31-1.49-3.22-2.63c-0.91-1.14-1.59-2.47-2.05-4.01
			c-0.47-1.53-0.7-3.19-0.7-4.98c0-3.78,0.93-6.73,2.78-8.85c1.85-2.11,4.29-3.17,7.32-3.17c1.75,0,3.23,0.3,4.42,0.89
			c1.2,0.6,2.37,1.52,3.51,2.76v-8.93c0-1.25,0.24-2.18,0.75-2.81c0.49-0.64,1.21-0.96,2.13-0.96c0.92,0,1.62,0.29,2.12,0.87
			c0.49,0.59,0.75,1.45,0.75,2.58v26.67c0,1.15-0.27,2.01-0.8,2.6c-0.53,0.57-1.23,0.86-2.07,0.86c-0.84,0-1.52-0.3-2.05-0.89
			C186.45,346.77,186.18,345.92,186.18,344.81z M174.23,335.93c0,1.64,0.26,3.03,0.77,4.18c0.51,1.15,1.21,2.02,2.1,2.61
			c0.89,0.59,1.86,0.87,2.92,0.87c1.07,0,2.04-0.28,2.93-0.83c0.89-0.55,1.58-1.41,2.11-2.54c0.52-1.15,0.79-2.58,0.79-4.29
			c0-1.61-0.27-2.99-0.79-4.15c-0.52-1.16-1.24-2.04-2.13-2.66c-0.9-0.62-1.88-0.92-2.95-0.92c-1.11,0-2.1,0.31-2.98,0.94
			c-0.88,0.63-1.55,1.53-2.03,2.7C174.48,333.01,174.23,334.37,174.23,335.93z"/>
		<path class="st0" d="M214.96,337.46h-11.87c0.01,1.37,0.29,2.59,0.83,3.63c0.54,1.05,1.26,1.84,2.16,2.37
			c0.9,0.53,1.89,0.8,2.97,0.8c0.73,0,1.39-0.09,1.99-0.26s1.19-0.44,1.74-0.8c0.57-0.36,1.08-0.75,1.56-1.16
			c0.47-0.42,1.09-0.98,1.85-1.68c0.31-0.27,0.76-0.4,1.33-0.4c0.62,0,1.12,0.17,1.52,0.51c0.38,0.34,0.58,0.82,0.58,1.44
			c0,0.54-0.21,1.18-0.64,1.92c-0.43,0.73-1.08,1.44-1.94,2.11c-0.87,0.67-1.96,1.23-3.27,1.67c-1.31,0.45-2.82,0.66-4.53,0.66
			c-3.9,0-6.93-1.11-9.09-3.32c-2.17-2.21-3.25-5.23-3.25-9.02c0-1.79,0.27-3.45,0.8-4.97c0.53-1.53,1.31-2.84,2.33-3.93
			c1.02-1.1,2.29-1.93,3.78-2.51c1.5-0.59,3.16-0.87,4.98-0.87c2.37,0,4.41,0.5,6.1,1.49c1.7,1,2.97,2.29,3.81,3.86
			c0.84,1.58,1.27,3.19,1.27,4.83c0,1.52-0.44,2.51-1.31,2.96C217.77,337.22,216.54,337.46,214.96,337.46z M203.08,334.02h11
			c-0.15-2.07-0.71-3.62-1.68-4.64c-0.97-1.02-2.25-1.54-3.84-1.54c-1.52,0-2.76,0.52-3.73,1.56
			C203.88,330.44,203.29,331.98,203.08,334.02z"/>
		<path class="st0" d="M256.35,320.31h-13.01v8.31h10.87c1,0,1.76,0.22,2.25,0.67c0.49,0.45,0.75,1.05,0.75,1.81
			s-0.26,1.35-0.76,1.8c-0.5,0.45-1.25,0.66-2.24,0.66h-10.87v10.7c0,1.36-0.31,2.36-0.92,3.02c-0.62,0.66-1.4,0.99-2.37,0.99
			c-0.98,0-1.77-0.33-2.39-1c-0.62-0.66-0.92-1.67-0.92-3.01v-24.99c0-0.95,0.14-1.71,0.43-2.31c0.29-0.6,0.72-1.03,1.32-1.31
			c0.6-0.28,1.36-0.42,2.3-0.42h15.56c1.06,0,1.84,0.23,2.35,0.7c0.51,0.47,0.77,1.08,0.77,1.83c0,0.77-0.26,1.38-0.77,1.85
			C258.19,320.08,257.41,320.31,256.35,320.31z"/>
		<path class="st0" d="M279.3,344.86c-1.46,1.14-2.88,1.99-4.26,2.55c-1.37,0.56-2.91,0.85-4.61,0.85c-1.56,0-2.93-0.31-4.1-0.92
			c-1.18-0.62-2.08-1.45-2.72-2.49c-0.64-1.04-0.95-2.18-0.95-3.42c0-1.65,0.52-3.07,1.58-4.24c1.06-1.17,2.5-1.95,4.34-2.35
			c0.39-0.09,1.35-0.29,2.87-0.6c1.53-0.31,2.83-0.6,3.92-0.85c1.09-0.26,2.28-0.57,3.55-0.94c-0.08-1.6-0.4-2.77-0.97-3.51
			c-0.58-0.75-1.75-1.12-3.54-1.12c-1.54,0-2.7,0.21-3.48,0.64c-0.78,0.43-1.44,1.08-2,1.93c-0.56,0.85-0.95,1.43-1.18,1.69
			c-0.23,0.28-0.73,0.42-1.47,0.42c-0.68,0-1.27-0.21-1.77-0.65c-0.49-0.44-0.75-0.99-0.75-1.67c0-1.06,0.38-2.1,1.13-3.1
			c0.76-1,1.94-1.83,3.54-2.48c1.6-0.65,3.59-0.98,5.98-0.98c2.67,0,4.76,0.31,6.29,0.94c1.53,0.63,2.61,1.62,3.23,2.98
			c0.63,1.36,0.94,3.16,0.94,5.41c0,1.42,0,2.62-0.01,3.61c-0.01,0.99-0.02,2.09-0.03,3.3c0,1.14,0.19,2.32,0.57,3.56
			c0.37,1.23,0.57,2.02,0.57,2.38c0,0.62-0.29,1.18-0.88,1.69c-0.59,0.51-1.25,0.77-1.99,0.77c-0.62,0-1.24-0.29-1.85-0.87
			C280.62,346.8,279.98,345.96,279.3,344.86z M278.9,336.11c-0.89,0.33-2.18,0.67-3.88,1.03c-1.7,0.36-2.87,0.63-3.52,0.8
			c-0.65,0.17-1.27,0.5-1.87,1c-0.59,0.5-0.89,1.18-0.89,2.08c0,0.92,0.35,1.69,1.05,2.34c0.69,0.65,1.61,0.97,2.73,0.97
			c1.2,0,2.31-0.27,3.32-0.79c1.01-0.52,1.76-1.2,2.23-2.02c0.54-0.92,0.82-2.43,0.82-4.52V336.11z M275.25,314.99h3
			c0.76,0,1.13,0.11,1.13,0.33c0,0.12-0.42,0.6-1.25,1.44c-0.83,0.84-1.67,1.65-2.51,2.42c-0.85,0.77-1.43,1.23-1.75,1.39
			c-0.85,0.43-1.75,0.64-2.71,0.64c-0.64,0-0.96-0.18-0.96-0.55c0-0.26,0.19-0.69,0.58-1.31l1-1.86c0.58-1.08,1.08-1.77,1.52-2.06
			C273.73,315.14,274.38,314.99,275.25,314.99z"/>
		<path class="st0" d="M291.35,324.21h0.66v-3.63c0-0.98,0.02-1.74,0.07-2.29c0.06-0.55,0.19-1.03,0.44-1.43
			c0.23-0.42,0.58-0.75,1.03-1.01c0.45-0.26,0.94-0.38,1.48-0.38c0.77,0,1.46,0.29,2.09,0.86c0.42,0.38,0.67,0.85,0.79,1.41
			c0.11,0.55,0.17,1.34,0.17,2.36v4.12h2.22c0.85,0,1.52,0.2,1.97,0.61c0.45,0.4,0.67,0.93,0.67,1.56c0,0.81-0.32,1.38-0.97,1.7
			c-0.64,0.33-1.57,0.49-2.77,0.49h-1.13v11.12c0,0.95,0.03,1.67,0.1,2.18c0.06,0.51,0.24,0.93,0.53,1.25
			c0.29,0.32,0.76,0.48,1.41,0.48c0.35,0,0.84-0.06,1.44-0.19c0.61-0.13,1.08-0.19,1.42-0.19c0.49,0,0.93,0.19,1.32,0.59
			c0.4,0.39,0.59,0.87,0.59,1.45c0,0.98-0.53,1.72-1.6,2.24c-1.07,0.52-2.61,0.78-4.6,0.78c-1.9,0-3.33-0.32-4.31-0.96
			c-0.98-0.64-1.62-1.51-1.93-2.64c-0.3-1.12-0.46-2.62-0.46-4.5v-11.61h-0.8c-0.88,0-1.54-0.2-2-0.62s-0.69-0.94-0.69-1.58
			c0-0.64,0.24-1.16,0.73-1.56C289.73,324.41,290.43,324.21,291.35,324.21z"/>
		<path class="st0" d="M310.2,320.86c-0.84,0-1.57-0.26-2.17-0.78s-0.9-1.25-0.9-2.19c0-0.85,0.31-1.56,0.92-2.12
			c0.62-0.55,1.33-0.83,2.15-0.83c0.79,0,1.49,0.26,2.09,0.76c0.61,0.5,0.91,1.23,0.91,2.19c0,0.93-0.3,1.66-0.89,2.18
			C311.73,320.6,311.02,320.86,310.2,320.86z M313.2,327.11v17.48c0,1.21-0.29,2.13-0.87,2.75c-0.58,0.62-1.31,0.93-2.2,0.93
			c-0.89,0-1.61-0.32-2.17-0.96c-0.56-0.64-0.83-1.54-0.83-2.72v-17.31c0-1.19,0.28-2.1,0.83-2.7c0.56-0.61,1.28-0.9,2.17-0.9
			c0.89,0,1.62,0.3,2.2,0.9C312.92,325.19,313.2,326.03,313.2,327.11z"/>
		<path class="st0" d="M339.67,336.42v8.05c0,1.27-0.29,2.22-0.87,2.86c-0.58,0.64-1.35,0.96-2.29,0.96c-0.92,0-1.67-0.32-2.23-0.96
			c-0.58-0.64-0.86-1.59-0.86-2.86v-9.63c0-1.52-0.05-2.7-0.16-3.54c-0.11-0.84-0.38-1.53-0.84-2.08c-0.46-0.54-1.19-0.81-2.18-0.81
			c-1.99,0-3.29,0.68-3.92,2.04c-0.63,1.36-0.94,3.31-0.94,5.84v8.17c0,1.26-0.29,2.2-0.86,2.84c-0.57,0.64-1.32,0.97-2.25,0.97
			c-0.92,0-1.67-0.32-2.26-0.97c-0.59-0.64-0.88-1.59-0.88-2.84v-17.31c0-1.14,0.27-2,0.79-2.6c0.52-0.59,1.22-0.88,2.08-0.88
			c0.83,0,1.53,0.28,2.08,0.83c0.56,0.55,0.83,1.32,0.83,2.29v0.57c1.06-1.26,2.18-2.18,3.38-2.77c1.2-0.6,2.53-0.88,4.01-0.88
			c1.53,0,2.84,0.3,3.93,0.9c1.1,0.61,2,1.52,2.71,2.75c1.03-1.25,2.11-2.16,3.29-2.76c1.18-0.6,2.47-0.89,3.89-0.89
			c1.66,0,3.09,0.33,4.29,0.98c1.2,0.65,2.09,1.58,2.69,2.79c0.52,1.1,0.78,2.81,0.78,5.16v11.8c0,1.27-0.29,2.22-0.86,2.86
			c-0.58,0.64-1.35,0.96-2.29,0.96c-0.92,0-1.67-0.32-2.25-0.97c-0.59-0.64-0.88-1.59-0.88-2.84V334.3c0-1.3-0.05-2.34-0.17-3.13
			c-0.11-0.79-0.41-1.44-0.9-1.97c-0.49-0.53-1.23-0.8-2.22-0.8c-0.8,0-1.56,0.23-2.28,0.71c-0.72,0.47-1.28,1.11-1.68,1.91
			C339.89,332.03,339.67,333.83,339.67,336.42z"/>
		<path class="st0" d="M375.11,344.86c-1.46,1.14-2.88,1.99-4.26,2.55c-1.37,0.56-2.91,0.85-4.61,0.85c-1.56,0-2.93-0.31-4.1-0.92
			c-1.18-0.62-2.08-1.45-2.72-2.49c-0.64-1.04-0.95-2.18-0.95-3.42c0-1.65,0.52-3.07,1.58-4.24c1.06-1.17,2.5-1.95,4.34-2.35
			c0.38-0.09,1.34-0.29,2.87-0.6c1.53-0.31,2.83-0.6,3.92-0.85c1.09-0.26,2.28-0.57,3.54-0.94c-0.07-1.6-0.39-2.77-0.97-3.51
			c-0.58-0.75-1.75-1.12-3.55-1.12c-1.54,0-2.7,0.21-3.48,0.64c-0.78,0.43-1.44,1.08-2,1.93c-0.56,0.85-0.95,1.43-1.17,1.69
			c-0.24,0.28-0.73,0.42-1.48,0.42c-0.68,0-1.27-0.21-1.77-0.65c-0.49-0.44-0.75-0.99-0.75-1.67c0-1.06,0.37-2.1,1.13-3.1
			c0.76-1,1.93-1.83,3.53-2.48c1.6-0.65,3.59-0.98,5.98-0.98c2.67,0,4.77,0.31,6.29,0.94c1.53,0.63,2.61,1.62,3.24,2.98
			c0.63,1.36,0.94,3.16,0.94,5.41c0,1.42,0,2.62-0.01,3.61c-0.01,0.99-0.02,2.09-0.03,3.3c0,1.14,0.19,2.32,0.57,3.56
			c0.37,1.23,0.57,2.02,0.57,2.38c0,0.62-0.29,1.18-0.88,1.69c-0.59,0.51-1.25,0.77-1.99,0.77c-0.62,0-1.24-0.29-1.85-0.87
			C376.43,346.8,375.79,345.96,375.11,344.86z M374.71,336.11c-0.89,0.33-2.18,0.67-3.88,1.03c-1.7,0.36-2.87,0.63-3.52,0.8
			c-0.65,0.17-1.27,0.5-1.87,1c-0.59,0.5-0.89,1.18-0.89,2.08c0,0.92,0.35,1.69,1.05,2.34c0.69,0.65,1.61,0.97,2.73,0.97
			c1.2,0,2.31-0.27,3.32-0.79c1.02-0.52,1.76-1.2,2.23-2.02c0.55-0.92,0.82-2.43,0.82-4.52V336.11z"/>
		<path class="st0" d="M419.49,344.04l-1.56-4.08h-13.26l-1.56,4.16c-0.61,1.63-1.12,2.72-1.56,3.29c-0.43,0.56-1.13,0.85-2.11,0.85
			c-0.83,0-1.56-0.3-2.2-0.9c-0.64-0.61-0.96-1.29-0.96-2.06c0-0.45,0.07-0.9,0.22-1.37c0.15-0.47,0.39-1.13,0.74-1.97l8.33-21.09
			c0.23-0.61,0.52-1.33,0.86-2.18s0.69-1.55,1.07-2.12c0.38-0.56,0.88-1.01,1.49-1.36c0.62-0.35,1.38-0.52,2.28-0.52
			c0.92,0,1.69,0.17,2.3,0.52c0.62,0.35,1.11,0.8,1.49,1.34c0.37,0.54,0.69,1.13,0.95,1.76c0.26,0.63,0.59,1.47,0.99,2.51
			l8.52,20.96c0.66,1.6,1,2.76,1,3.48c0,0.76-0.31,1.45-0.94,2.08s-1.39,0.94-2.28,0.94c-0.52,0-0.96-0.1-1.33-0.28
			c-0.37-0.18-0.68-0.44-0.94-0.76c-0.25-0.32-0.52-0.81-0.81-1.46C419.94,345.11,419.7,344.54,419.49,344.04z M406.42,335.02h9.74
			l-4.91-13.4L406.42,335.02z"/>
		<path class="st0" d="M434.98,348.26c-0.92,0-1.71-0.3-2.38-0.88c-0.66-0.6-1-1.42-1-2.48c0-0.9,0.32-1.67,0.96-2.33
			c0.64-0.65,1.42-0.98,2.36-0.98c0.94,0,1.73,0.32,2.39,0.97c0.66,0.65,0.99,1.43,0.99,2.34c0,1.05-0.33,1.87-0.99,2.47
			C436.65,347.96,435.88,348.26,434.98,348.26z"/>
		<path class="st0" d="M473.41,337.46c0,1.03-0.25,2.15-0.77,3.35c-0.51,1.2-1.31,2.38-2.41,3.54c-1.1,1.16-2.5,2.1-4.2,2.82
			c-1.7,0.72-3.7,1.09-5.96,1.09c-1.72,0-3.28-0.16-4.69-0.49c-1.41-0.33-2.69-0.83-3.84-1.52c-1.15-0.69-2.2-1.6-3.17-2.71
			c-0.86-1.02-1.59-2.16-2.2-3.43c-0.61-1.27-1.07-2.61-1.36-4.04c-0.3-1.44-0.46-2.96-0.46-4.57c0-2.62,0.39-4.96,1.14-7.03
			c0.76-2.07,1.86-3.83,3.28-5.3c1.42-1.47,3.09-2.59,5-3.35c1.91-0.77,3.95-1.15,6.11-1.15c2.64,0,4.99,0.52,7.05,1.58
			c2.06,1.05,3.64,2.34,4.73,3.89c1.1,1.54,1.65,3,1.65,4.37c0,0.76-0.27,1.42-0.8,1.99c-0.53,0.57-1.18,0.86-1.93,0.86
			c-0.85,0-1.47-0.2-1.9-0.6c-0.43-0.39-0.9-1.09-1.41-2.06c-0.85-1.61-1.87-2.81-3.03-3.61c-1.17-0.8-2.6-1.19-4.3-1.19
			c-2.71,0-4.87,1.02-6.48,3.08c-1.61,2.05-2.41,4.97-2.41,8.75c0,2.52,0.35,4.63,1.07,6.3c0.72,1.68,1.72,2.93,3.02,3.76
			c1.3,0.83,2.83,1.25,4.58,1.25c1.9,0,3.5-0.47,4.82-1.41c1.31-0.94,2.3-2.32,2.97-4.13c0.28-0.85,0.63-1.55,1.05-2.1
			c0.42-0.54,1.08-0.81,2-0.81c0.79,0,1.46,0.28,2.02,0.82C473.1,335.95,473.41,336.64,473.41,337.46z"/>
		<path class="st0" d="M480.68,348.26c-0.92,0-1.71-0.3-2.38-0.88c-0.66-0.6-1-1.42-1-2.48c0-0.9,0.32-1.67,0.96-2.33
			c0.64-0.65,1.42-0.98,2.36-0.98c0.94,0,1.73,0.32,2.39,0.97c0.66,0.65,0.99,1.43,0.99,2.34c0,1.05-0.33,1.87-0.99,2.47
			C482.35,347.96,481.57,348.26,480.68,348.26z"/>
	</g>
</g>
</svg>
