<svg width="266" height="90" viewBox="0 0 266 90" fill="none" xmlns="http://www.w3.org/2000/svg">
<g clip-path="url(#clip0)">
<path d="M47.1539 7.91872H38.1694V2.80551C38.1694 1.25721 36.9077 0 35.3538 0C33.7999 0 32.5382 1.25721 32.5382 2.80551V7.91872H23.5537C21.9998 7.91872 20.7381 9.17593 20.7381 10.7242C20.7381 12.2725 21.9998 13.5297 23.5537 13.5297H32.5382V23.1951C32.5382 24.7434 33.7999 26.0006 35.3538 26.0006C36.9077 26.0006 38.1694 24.7434 38.1694 23.1951V13.5297H47.1539C48.7078 13.5297 49.9695 12.2725 49.9695 10.7242C49.9695 9.17593 48.7078 7.91872 47.1539 7.91872Z" fill="white"/>
<path d="M64.509 32.1305C58.9074 26.5575 50.4141 24.5451 42.8903 27.0004C41.0612 27.5953 39.321 28.4433 37.7248 29.5106C37.3099 29.7891 36.9076 30.0802 36.5139 30.3839C36.3191 30.5358 35.6121 31.3289 35.358 31.3458C35.1802 31.3585 34.507 30.6202 34.3334 30.4852C33.8973 30.1434 33.4527 29.8186 32.9912 29.5106C29.6845 27.2957 25.768 26.0681 21.7881 25.9584C13.9552 25.7474 6.46954 29.9916 2.64625 36.8092C-1.16857 43.6141 -0.838317 52.2585 3.48458 58.7512C3.99689 59.5233 4.56425 60.2616 5.17394 60.9577C5.49996 61.3332 5.83868 61.696 6.1901 62.0461C6.64737 62.5018 6.65583 62.641 6.70664 63.2569C6.84213 64.8812 7.57038 66.4253 8.73049 67.5728C9.23857 68.0706 9.82285 68.4967 10.458 68.8173C10.8221 69.003 11.1989 69.1506 11.5884 69.2687C11.889 69.3616 12.702 69.3616 12.9433 69.5303C13.2397 69.7412 13.2016 71.1208 13.354 71.6355C13.5784 72.4033 13.9383 73.1332 14.4125 73.7787C15.3609 75.0696 16.7581 76.0104 18.3205 76.3943C18.7227 76.4956 19.1376 76.5546 19.5525 76.5799C20.0564 76.6095 20.0056 76.4914 20.1876 76.8753C20.3274 77.1706 20.3104 77.6389 20.4036 77.9637C20.5264 78.3983 20.6957 78.8244 20.9032 79.2294C21.6441 80.668 22.8974 81.8239 24.3962 82.4441C24.7349 82.5833 25.0821 82.6972 25.4378 82.7816C25.641 82.828 26.4328 82.828 26.5471 82.9504C26.6318 83.039 26.5937 83.946 26.6148 84.1063C26.6783 84.5577 26.7884 84.9965 26.9409 85.4268C28.0163 88.4559 31.1833 90.3797 34.38 89.9367C36.9966 89.5781 38.6097 87.6923 40.3583 85.9499C41.0781 85.2327 41.7979 84.5155 42.5219 83.7941C42.704 83.6127 42.8945 83.4355 43.0723 83.2499C43.4153 82.8871 43.7201 82.4989 43.9784 82.0728C44.0927 81.8872 44.1986 81.6932 44.296 81.4949C44.4949 81.0856 44.5712 81.0899 44.9353 80.8578C46.5611 79.8116 47.8779 78.7822 48.5384 76.8753C48.6908 76.4365 48.7967 75.9809 48.856 75.5168C48.9491 74.7869 48.7797 74.7743 49.5503 74.6984C50.4818 74.6013 51.3963 74.3144 52.2135 73.8546C53.9198 72.8969 55.1688 71.2221 55.5838 69.3151C55.6473 69.0198 55.6219 68.4672 55.8124 68.3406C56.0241 68.1972 56.8116 68.2773 57.091 68.2225C58.0776 68.0368 59.0175 67.6361 59.8304 67.0496C60.5036 66.5687 61.143 65.9528 61.5706 65.2398C62.0872 64.3749 62.6503 63.8602 63.387 63.1599C64.7842 61.8268 66.0883 60.4177 67.1595 58.8061C71.5501 52.2163 71.9269 43.5129 67.9766 36.6278C67.0282 34.9909 65.8596 33.4721 64.509 32.1305ZM15.4286 64.358C13.1635 66.8429 9.58152 63.2865 11.9102 60.8438C12.9306 59.7722 14.0103 58.7512 15.0603 57.705C16.2966 56.4731 17.8293 54.659 19.7177 56.0385C20.8397 56.8612 21.0514 58.4644 20.2131 59.5612C19.8151 60.0802 19.2731 60.5274 18.8116 60.9872C17.6854 62.1136 16.5549 63.2358 15.4286 64.358ZM21.8262 71.395C19.5991 73.8419 16.0256 70.4036 18.2315 67.9567C19.2138 66.864 20.3316 65.8642 21.3732 64.8263C22.5841 63.6197 23.9898 61.8267 25.8951 62.9363C27.1864 63.6872 27.5082 65.4296 26.6064 66.6024C26.238 67.0834 25.7426 67.4926 25.3108 67.9229C24.1507 69.0747 22.9905 70.2348 21.8262 71.395ZM27.0382 78.5839C25.6791 78.5839 24.5444 77.449 24.5444 76.099C24.5444 75.1793 25.061 74.5591 25.6707 73.9516C26.89 72.7366 28.1094 71.5216 29.3288 70.3066C29.8327 69.8045 30.2984 69.273 31.0139 69.0705C32.3349 68.6992 33.7533 69.4881 34.109 70.817C34.6001 72.6438 32.6948 73.9727 31.5601 75.1076C30.4424 76.2171 28.7826 78.5839 27.0382 78.5839ZM39.7741 80.3305C38.8087 81.2924 37.8476 82.25 36.8822 83.2119C35.6671 84.4227 34.2445 86.3507 32.2926 85.3382C31.0351 84.6843 30.5609 83.0685 31.3019 81.8535C31.6067 81.3514 32.1275 80.9253 32.5424 80.5119C33.7279 79.3306 34.8965 78.1198 36.1074 76.9596C37.005 76.099 38.1905 75.6645 39.3549 76.3437C40.7817 77.1748 40.9977 79.2167 39.7741 80.3305ZM57.5695 63.2316C56.3078 64.4888 54.72 63.8813 53.6446 62.8857C52.5395 61.8689 51.5064 60.7552 50.4437 59.6962C48.8305 58.0889 47.2216 56.4857 45.6085 54.8784C45.0496 54.3215 44.4992 53.676 43.8514 53.2119C41.98 51.8661 39.3253 54.1654 40.6928 56.1398C41.2263 56.9076 42.0392 57.5911 42.6997 58.2534C43.7328 59.2828 44.7702 60.3122 45.8032 61.3458C47.2724 62.8097 48.6951 64.3496 50.2235 65.7503C50.9433 66.4084 51.4514 67.1298 51.3117 68.1634C51.1338 69.505 49.8636 70.4542 48.5257 70.3488C47.12 70.2348 46.0658 68.7245 45.1385 67.8006C43.6482 66.3156 42.1493 64.8348 40.6378 63.3666C39.6555 62.4132 38.6732 61.4597 37.7163 60.4809C36.9585 59.7047 36.1286 59.1562 35.0066 59.5992C33.8804 60.0422 33.3172 61.3542 33.7787 62.4722C34.0878 63.2316 35.0616 63.9657 35.6375 64.5352C36.8653 65.7629 38.0974 66.9864 39.3253 68.2098C40.4727 69.3531 41.6243 70.4964 42.7717 71.6397C43.809 72.6691 45.13 73.9221 44.3256 75.5252C43.4492 73.7027 41.7683 72.3274 39.7995 71.8296C39.5327 71.7621 39.1982 71.7663 38.9484 71.6692C38.6097 71.5342 38.7748 71.7283 38.6012 71.4541C38.4065 71.1503 38.4658 70.0366 38.3557 69.6358C38.0889 68.6612 37.5978 67.75 36.9373 66.9821C35.7094 65.5562 33.9142 64.6787 32.0259 64.5901C31.2934 64.5563 31.5347 64.2779 31.3738 63.5776C31.2765 63.1472 31.1367 62.7211 30.9589 62.3204C30.5355 61.3669 29.8919 60.5105 29.0959 59.8355C28.3508 59.2069 27.4786 58.7428 26.5429 58.4728C26.2931 58.4011 25.2854 58.3884 25.1414 58.2239C25.0229 58.0889 25.0652 57.0046 25.0271 56.7979C24.7095 55.0851 23.7273 53.5326 22.3173 52.5032C19.4086 50.3769 15.6234 50.9802 13.1381 53.4229C11.5842 54.9501 9.95411 56.4478 8.48915 58.0636C3.98419 52.8871 3.12046 45.2384 6.34675 39.1928C9.25974 33.7337 15.0942 30.308 21.2885 30.3417C25.2769 30.3628 29.1806 31.8183 32.1995 34.4213C30.5694 36.0456 28.9351 37.674 27.305 39.2983C25.6961 40.9014 23.5537 42.513 22.4825 44.5423C19.7261 49.7567 24.6122 55.701 30.2518 54.4143C32.9785 53.7941 34.8838 51.3261 36.7933 49.4277C38.5631 47.6642 40.3245 45.9218 42.0943 44.1541C46.9041 48.9931 51.7181 53.8321 56.5279 58.6711C57.7473 59.8988 59.2546 61.5567 57.5695 63.2316ZM61.9601 58.3715C60.9821 56.4351 58.899 54.8362 57.3917 53.3301C54.7962 50.7397 52.2008 48.1451 49.6011 45.5548C47.7551 43.7112 45.8879 41.8928 44.0631 40.0281C43.2078 39.1548 42.0392 38.4081 40.8453 39.2645C40.0281 39.8509 39.321 40.7369 38.6055 41.433C36.1709 43.8124 33.7449 46.196 31.3188 48.5839C30.3407 49.5458 29.3585 50.668 27.8004 50.1828C26.4666 49.7652 25.7172 48.297 26.1576 46.9765C26.3608 46.3648 26.78 45.9556 27.2203 45.5168C29.5659 43.1796 31.9115 40.8381 34.236 38.4798C36.3869 36.3029 38.5589 34.0079 41.256 32.4891C43.9318 30.983 47.0015 30.2447 50.0711 30.3417C55.5965 30.5189 60.7662 33.4257 63.7299 38.0833C66.8927 43.053 67.1679 49.5458 64.4582 54.7729C63.7934 56.0765 62.9467 57.2915 61.9601 58.3715Z" fill="white"/>
<path d="M80.8267 51.0055V36.9821H90.3235V38.6359H82.6897V42.9813H89.2947V44.6351H82.6897V51.0055H80.8267Z" fill="white"/>
<path d="M99.2064 51.0055V49.512C98.4104 50.6595 97.335 51.2333 95.9716 51.2333C95.3704 51.2333 94.8073 51.1194 94.2865 50.8873C93.7657 50.6595 93.3762 50.3684 93.1264 50.0225C92.8724 49.6765 92.6945 49.2504 92.5929 48.7442C92.5209 48.4067 92.4871 47.8709 92.4871 47.1368V40.8466H94.2145V46.4829C94.2145 47.3815 94.2484 47.989 94.3204 48.3012C94.4305 48.7526 94.6591 49.1112 95.0105 49.3686C95.3619 49.6259 95.798 49.7567 96.3146 49.7567C96.8311 49.7567 97.318 49.6259 97.7753 49.3601C98.2283 49.0943 98.5501 48.7357 98.7407 48.2801C98.9312 47.8245 99.0243 47.1621 99.0243 46.293V40.8508H100.752V51.0139H99.2064V51.0055Z" fill="white"/>
<path d="M103.462 51.0055V40.8466H105.015V42.2894C105.765 41.1714 106.845 40.6145 108.263 40.6145C108.877 40.6145 109.444 40.7242 109.957 40.9436C110.473 41.163 110.858 41.4541 111.112 41.8085C111.366 42.1671 111.549 42.5889 111.65 43.0825C111.714 43.4032 111.748 43.9601 111.748 44.7574V51.0055H110.02V44.8249C110.02 44.1246 109.952 43.5972 109.817 43.2513C109.681 42.9054 109.444 42.6269 109.101 42.4202C108.758 42.2135 108.356 42.108 107.895 42.108C107.158 42.108 106.523 42.34 105.989 42.8083C105.456 43.2724 105.189 44.1583 105.189 45.4577V51.0055H103.462Z" fill="white"/>
<path d="M121.011 51.0055V49.723C120.364 50.7313 119.415 51.2333 118.158 51.2333C117.345 51.2333 116.595 51.0097 115.914 50.5625C115.232 50.1153 114.703 49.4909 114.33 48.6936C113.958 47.892 113.767 46.9723 113.767 45.9345C113.767 44.922 113.936 44.0023 114.275 43.1754C114.614 42.3485 115.122 41.7157 115.804 41.2769C116.481 40.8381 117.239 40.6188 118.082 40.6188C118.695 40.6188 119.242 40.7495 119.724 41.0069C120.203 41.2642 120.597 41.6017 120.897 42.0152V36.9821H122.616V51.0097H121.011V51.0055ZM115.55 45.9345C115.55 47.2339 115.825 48.2084 116.375 48.8539C116.926 49.4994 117.573 49.82 118.323 49.82C119.076 49.82 119.72 49.512 120.249 48.8961C120.779 48.2801 121.041 47.3393 121.041 46.0779C121.041 44.6857 120.774 43.669 120.232 43.015C119.695 42.3654 119.034 42.0405 118.247 42.0405C117.48 42.0405 116.837 42.3527 116.32 42.9771C115.808 43.6057 115.55 44.5887 115.55 45.9345Z" fill="white"/>
<path d="M131.99 49.7525C131.351 50.2967 130.733 50.6764 130.14 50.9C129.547 51.1236 128.912 51.2333 128.235 51.2333C127.113 51.2333 126.253 50.9591 125.652 50.4149C125.051 49.8706 124.75 49.1745 124.75 48.3223C124.75 47.8245 124.864 47.3689 125.089 46.9596C125.317 46.5462 125.614 46.2171 125.982 45.9682C126.35 45.7193 126.765 45.5295 127.227 45.4029C127.566 45.3143 128.078 45.2257 128.764 45.1456C130.161 44.981 131.186 44.7827 131.846 44.5507C131.85 44.3144 131.855 44.1668 131.855 44.0993C131.855 43.399 131.69 42.9054 131.364 42.6143C130.923 42.2261 130.267 42.0321 129.395 42.0321C128.582 42.0321 127.981 42.1755 127.595 42.4582C127.206 42.7408 126.922 43.2429 126.736 43.9643L125.046 43.7365C125.199 43.0151 125.453 42.4329 125.804 41.9899C126.156 41.5469 126.664 41.2052 127.333 40.9647C127.998 40.7242 128.768 40.6061 129.649 40.6061C130.521 40.6061 131.228 40.7074 131.77 40.9141C132.316 41.1166 132.714 41.3739 132.968 41.6861C133.222 41.9941 133.404 42.3864 133.506 42.859C133.565 43.1543 133.591 43.6816 133.591 44.4452V46.7403C133.591 48.3434 133.629 49.3559 133.701 49.7778C133.773 50.2039 133.921 50.6089 134.137 50.997H132.333C132.155 50.6511 132.041 50.2334 131.99 49.7525ZM131.846 45.9092C131.22 46.1623 130.28 46.3817 129.022 46.5589C128.311 46.6601 127.807 46.774 127.515 46.9048C127.218 47.0314 126.994 47.217 126.833 47.4659C126.672 47.7106 126.592 47.9848 126.592 48.2843C126.592 48.7442 126.765 49.1281 127.117 49.4319C127.468 49.7356 127.976 49.8917 128.65 49.8917C129.314 49.8917 129.907 49.7483 130.428 49.4572C130.944 49.1661 131.325 48.7695 131.571 48.2675C131.757 47.8793 131.85 47.3056 131.85 46.5462V45.9092H131.846Z" fill="white"/>
<path d="M142.927 47.2845L144.624 47.5038C144.438 48.6725 143.964 49.5837 143.198 50.2461C142.431 50.9042 141.491 51.2375 140.378 51.2375C138.98 51.2375 137.858 50.7819 137.012 49.8748C136.165 48.9678 135.741 47.6642 135.741 45.9682C135.741 44.8713 135.924 43.9094 136.288 43.0867C136.652 42.2641 137.206 41.6481 137.952 41.2347C138.697 40.8212 139.51 40.6187 140.386 40.6187C141.495 40.6187 142.397 40.8972 143.104 41.4541C143.807 42.011 144.26 42.8041 144.459 43.8335L142.778 44.0908C142.617 43.4074 142.334 42.8969 141.927 42.551C141.521 42.205 141.03 42.0363 140.454 42.0363C139.582 42.0363 138.875 42.3485 138.333 42.9686C137.791 43.5888 137.516 44.576 137.516 45.9218C137.516 47.2887 137.778 48.2801 138.303 48.8961C138.828 49.5162 139.514 49.8242 140.357 49.8242C141.034 49.8242 141.601 49.6175 142.054 49.204C142.516 48.7821 142.804 48.1451 142.927 47.2845Z" fill="white"/>
<path d="M146.115 38.9608V36.9821H147.842V38.9608H146.115ZM146.115 51.0055V40.8466H147.842V51.0097H146.115V51.0055Z" fill="white"/>
<path d="M149.832 45.926C149.832 44.0444 150.357 42.6522 151.407 41.7452C152.284 40.9942 153.355 40.6145 154.617 40.6145C156.018 40.6145 157.165 41.0702 158.055 41.9856C158.944 42.9011 159.388 44.1668 159.388 45.7784C159.388 47.0862 159.194 48.1156 158.8 48.8623C158.406 49.6133 157.834 50.1955 157.081 50.6089C156.327 51.0224 155.506 51.2291 154.617 51.2291C153.19 51.2291 152.034 50.7734 151.153 49.8622C150.273 48.9551 149.832 47.6431 149.832 45.926ZM151.606 45.926C151.606 47.2254 151.89 48.2 152.462 48.8497C153.029 49.4951 153.749 49.82 154.612 49.82C155.472 49.82 156.183 49.4951 156.755 48.8454C157.322 48.1957 157.61 47.2043 157.61 45.8712C157.61 44.614 157.322 43.6605 156.751 43.015C156.179 42.3696 155.463 42.0447 154.612 42.0447C153.749 42.0447 153.029 42.3653 152.462 43.0108C151.89 43.6521 151.606 44.6266 151.606 45.926ZM153.651 39.5809L154.93 36.902H157.195L155.082 39.5809H153.651Z" fill="white"/>
<path d="M161.412 51.0055V40.8466H162.966V42.2894C163.715 41.1714 164.795 40.6145 166.214 40.6145C166.827 40.6145 167.395 40.7242 167.907 40.9436C168.424 41.163 168.809 41.4541 169.063 41.8085C169.317 42.1671 169.499 42.5889 169.601 43.0825C169.664 43.4032 169.698 43.9601 169.698 44.7574V51.0055H167.971V44.8249C167.971 44.1246 167.903 43.5972 167.767 43.2513C167.632 42.9054 167.395 42.6269 167.052 42.4202C166.709 42.2135 166.307 42.108 165.845 42.108C165.108 42.108 164.473 42.34 163.94 42.8083C163.406 43.2724 163.14 44.1583 163.14 45.4577V51.0055H161.412Z" fill="white"/>
<path d="M84.9845 68.4545L82.9141 60.2531V69.1379C82.9141 69.6315 82.804 69.9986 82.5838 70.2433C82.3636 70.488 82.0715 70.6103 81.7074 70.6103C81.356 70.6103 81.068 70.488 80.8436 70.2475C80.6192 70.007 80.5092 69.6358 80.5092 69.1379V58.9537C80.5092 58.3926 80.6573 58.0129 80.9495 57.8146C81.2416 57.6206 81.6396 57.5193 82.1392 57.5193H82.9522C83.4391 57.5193 83.7947 57.5615 84.0149 57.6501C84.2351 57.7387 84.4002 57.8948 84.506 58.1226C84.6119 58.3504 84.7304 58.7217 84.8659 59.2364L86.7416 66.286L88.6172 59.2364C88.7527 58.7217 88.8713 58.3504 88.9771 58.1226C89.083 57.8948 89.2439 57.7345 89.4683 57.6501C89.6884 57.5615 90.0441 57.5193 90.531 57.5193H91.3439C91.8435 57.5193 92.2415 57.6163 92.5337 57.8146C92.8258 58.0129 92.974 58.3884 92.974 58.9537V69.1379C92.974 69.6315 92.8639 69.9986 92.6438 70.2433C92.4236 70.488 92.1272 70.6103 91.7589 70.6103C91.4117 70.6103 91.128 70.488 90.9036 70.2433C90.6792 69.9986 90.5691 69.6273 90.5691 69.1379V60.2531L88.4987 68.4545C88.3632 68.9861 88.2531 69.3784 88.1684 69.6273C88.0838 69.8762 87.9271 70.104 87.6985 70.3065C87.4698 70.5133 87.1523 70.6145 86.7458 70.6145C86.441 70.6145 86.1827 70.547 85.971 70.4162C85.7593 70.2855 85.5942 70.1167 85.4756 69.91C85.3571 69.7033 85.2639 69.4797 85.1962 69.2308C85.1242 68.9818 85.0565 68.7245 84.9845 68.4545Z" fill="white"/>
<path d="M96.7084 59.7553C96.3739 59.7553 96.086 59.654 95.8489 59.4473C95.6118 59.2406 95.4932 58.9537 95.4932 58.5783C95.4932 58.2407 95.616 57.9581 95.8573 57.7387C96.1029 57.5193 96.3866 57.4096 96.7084 57.4096C97.0217 57.4096 97.2969 57.5109 97.5382 57.7092C97.7796 57.9075 97.8981 58.1986 97.8981 58.5783C97.8981 58.9453 97.7796 59.2364 97.5467 59.4431C97.3096 59.6498 97.0302 59.7553 96.7084 59.7553ZM97.8981 62.2317V69.159C97.8981 69.64 97.7838 70.0028 97.5552 70.2475C97.3265 70.4922 97.0344 70.6145 96.683 70.6145C96.3316 70.6145 96.0436 70.488 95.8235 70.2348C95.6033 69.9817 95.4932 69.6231 95.4932 69.1548V62.295C95.4932 61.8225 95.6033 61.4639 95.8235 61.2234C96.0436 60.983 96.3316 60.8648 96.683 60.8648C97.0344 60.8648 97.3265 60.983 97.5552 61.2234C97.7838 61.4681 97.8981 61.8014 97.8981 62.2317Z" fill="white"/>
<path d="M108.127 67.4799C108.127 68.1423 107.967 68.7076 107.645 69.1801C107.323 69.6526 106.845 70.007 106.214 70.2517C105.583 70.4964 104.812 70.6145 103.91 70.6145C103.047 70.6145 102.306 70.4837 101.688 70.218C101.069 69.9564 100.616 69.6273 100.32 69.2308C100.028 68.8342 99.8796 68.4376 99.8796 68.041C99.8796 67.7795 99.9728 67.5517 100.163 67.366C100.35 67.1804 100.591 67.0834 100.879 67.0834C101.133 67.0834 101.323 67.1467 101.459 67.269C101.594 67.3914 101.721 67.5643 101.848 67.7879C102.094 68.214 102.39 68.5346 102.733 68.7456C103.076 68.9565 103.546 69.062 104.139 69.062C104.622 69.062 105.015 68.9565 105.325 68.7414C105.634 68.5262 105.786 68.2815 105.786 68.0073C105.786 67.5854 105.625 67.2774 105.308 67.0834C104.986 66.8893 104.461 66.7037 103.724 66.5307C102.894 66.324 102.221 66.1088 101.7 65.8852C101.179 65.6616 100.765 65.3621 100.451 64.9951C100.138 64.628 99.9855 64.1724 99.9855 63.6324C99.9855 63.1514 100.129 62.7 100.417 62.2697C100.705 61.8436 101.129 61.5019 101.692 61.2445C102.255 60.9914 102.928 60.8606 103.724 60.8606C104.346 60.8606 104.905 60.9239 105.401 61.0547C105.896 61.1855 106.311 61.3542 106.646 61.5736C106.976 61.7888 107.23 62.0292 107.403 62.295C107.577 62.5566 107.662 62.8182 107.662 63.0671C107.662 63.3413 107.569 63.5691 107.382 63.7421C107.196 63.915 106.933 64.0036 106.595 64.0036C106.349 64.0036 106.137 63.9319 105.964 63.7927C105.79 63.6535 105.591 63.4425 105.371 63.1599C105.189 62.9236 104.973 62.738 104.728 62.5988C104.482 62.4596 104.147 62.3878 103.724 62.3878C103.288 62.3878 102.928 62.4807 102.64 62.6663C102.352 62.8519 102.208 63.0797 102.208 63.3539C102.208 63.6071 102.314 63.8138 102.526 63.9741C102.738 64.1344 103.021 64.2694 103.381 64.3749C103.741 64.4804 104.232 64.6112 104.863 64.763C105.608 64.9444 106.218 65.1596 106.692 65.4127C107.166 65.6659 107.522 65.9612 107.768 66.3029C108.005 66.6531 108.127 67.0412 108.127 67.4799Z" fill="white"/>
<path d="M111.379 59.7553C111.045 59.7553 110.757 59.654 110.52 59.4473C110.282 59.2406 110.164 58.9537 110.164 58.5783C110.164 58.2407 110.287 57.9581 110.528 57.7387C110.774 57.5193 111.057 57.4096 111.379 57.4096C111.692 57.4096 111.968 57.5109 112.209 57.7092C112.45 57.9075 112.569 58.1986 112.569 58.5783C112.569 58.9453 112.45 59.2364 112.217 59.4431C111.985 59.6498 111.705 59.7553 111.379 59.7553ZM112.569 62.2317V69.159C112.569 69.64 112.455 70.0028 112.226 70.2475C111.997 70.4922 111.705 70.6145 111.354 70.6145C111.002 70.6145 110.714 70.488 110.494 70.2348C110.274 69.9817 110.164 69.6231 110.164 69.1548V62.295C110.164 61.8225 110.274 61.4639 110.494 61.2234C110.714 60.983 111.002 60.8648 111.354 60.8648C111.705 60.8648 111.997 60.983 112.226 61.2234C112.455 61.4681 112.569 61.8014 112.569 62.2317Z" fill="white"/>
<path d="M124.06 65.7418C124.06 66.4548 123.95 67.1129 123.725 67.7162C123.501 68.3195 123.179 68.8384 122.756 69.2687C122.332 69.6991 121.829 70.0323 121.24 70.2644C120.652 70.4964 119.991 70.6103 119.259 70.6103C118.53 70.6103 117.874 70.4922 117.294 70.2602C116.714 70.0239 116.21 69.6906 115.782 69.2561C115.355 68.8215 115.033 68.3068 114.813 67.712C114.593 67.1171 114.483 66.459 114.483 65.7418C114.483 65.0162 114.593 64.3496 114.817 63.7505C115.042 63.1515 115.359 62.6325 115.778 62.2064C116.197 61.7803 116.701 61.4513 117.294 61.2192C117.887 60.9872 118.543 60.8733 119.259 60.8733C119.987 60.8733 120.647 60.9914 121.24 61.2234C121.833 61.4597 122.341 61.793 122.764 62.2233C123.188 62.6536 123.51 63.1725 123.73 63.7674C123.95 64.3622 124.06 65.0204 124.06 65.7418ZM121.647 65.7418C121.647 64.763 121.431 64.0037 120.999 63.4594C120.567 62.9152 119.987 62.641 119.259 62.641C118.789 62.641 118.374 62.7633 118.018 63.0038C117.658 63.2485 117.383 63.6071 117.188 64.0796C116.993 64.5521 116.896 65.109 116.896 65.7376C116.896 66.3662 116.993 66.9104 117.184 67.3787C117.374 67.847 117.65 68.2056 118.005 68.4545C118.361 68.7034 118.78 68.8258 119.263 68.8258C119.991 68.8258 120.571 68.5515 121.003 68.0031C121.431 67.4631 121.647 66.7079 121.647 65.7418ZM119.534 57.4265H120.724C121.024 57.4265 121.172 57.4687 121.172 57.5573C121.172 57.6037 121.007 57.7936 120.677 58.1268C120.347 58.4601 120.016 58.7808 119.682 59.0845C119.348 59.3883 119.115 59.5739 118.988 59.6372C118.653 59.8059 118.293 59.8903 117.912 59.8903C117.658 59.8903 117.531 59.8186 117.531 59.6709C117.531 59.5697 117.607 59.3967 117.76 59.152L118.158 58.4137C118.386 57.9876 118.585 57.7134 118.759 57.5953C118.928 57.4856 119.187 57.4265 119.534 57.4265Z" fill="white"/>
<path d="M128.141 62.1938V62.4849C128.565 61.928 129.026 61.5188 129.53 61.2614C130.034 60.9999 130.61 60.8691 131.262 60.8691C131.897 60.8691 132.464 61.0083 132.964 61.2825C133.464 61.5567 133.836 61.9449 134.082 62.4511C134.243 62.7422 134.344 63.0586 134.391 63.4004C134.437 63.7379 134.463 64.1724 134.463 64.6998V69.159C134.463 69.64 134.353 70.0028 134.133 70.2475C133.912 70.4922 133.624 70.6145 133.273 70.6145C132.913 70.6145 132.625 70.488 132.401 70.2348C132.176 69.9817 132.066 69.6231 132.066 69.1548V65.1596C132.066 64.3707 131.956 63.7632 131.736 63.3455C131.516 62.9279 131.076 62.7169 130.419 62.7169C129.992 62.7169 129.598 62.8435 129.247 63.1008C128.895 63.354 128.637 63.7041 128.472 64.1513C128.353 64.5099 128.294 65.1765 128.294 66.1553V69.159C128.294 69.6442 128.18 70.0113 127.955 70.2517C127.731 70.4922 127.439 70.6145 127.079 70.6145C126.732 70.6145 126.448 70.488 126.223 70.2348C125.999 69.9817 125.889 69.6231 125.889 69.1548V62.2275C125.889 61.7719 125.991 61.4302 126.19 61.2066C126.389 60.983 126.664 60.8691 127.011 60.8691C127.223 60.8691 127.413 60.9197 127.583 61.0167C127.752 61.1138 127.887 61.2656 127.993 61.4639C128.091 61.6664 128.141 61.9069 128.141 62.1938Z" fill="white"/>
<path d="M147.961 69.2476V69.0114C147.639 69.3784 147.317 69.6822 147.004 69.91C146.691 70.142 146.348 70.315 145.983 70.4373C145.619 70.5597 145.217 70.6188 144.781 70.6188C144.205 70.6188 143.672 70.4964 143.181 70.2559C142.689 70.0155 142.266 69.6653 141.906 69.2139C141.546 68.7625 141.275 68.2351 141.093 67.6234C140.907 67.0159 140.814 66.3578 140.814 65.649C140.814 64.1513 141.182 62.9827 141.915 62.1432C142.647 61.3078 143.617 60.886 144.815 60.886C145.509 60.886 146.094 61.0041 146.568 61.2403C147.042 61.4766 147.508 61.8436 147.961 62.333V58.7934C147.961 58.2998 148.058 57.9286 148.257 57.6796C148.452 57.4265 148.736 57.3 149.1 57.3C149.464 57.3 149.743 57.4139 149.942 57.6459C150.137 57.8779 150.239 58.2197 150.239 58.6668V69.2392C150.239 69.6948 150.133 70.0366 149.921 70.2686C149.709 70.4964 149.434 70.6103 149.1 70.6103C148.769 70.6103 148.498 70.4922 148.287 70.2559C148.067 70.0239 147.961 69.6864 147.961 69.2476ZM143.227 65.7249C143.227 66.3746 143.329 66.9273 143.532 67.3829C143.735 67.8386 144.01 68.1845 144.366 68.4165C144.718 68.6486 145.103 68.7625 145.522 68.7625C145.945 68.7625 146.331 68.6528 146.682 68.4334C147.034 68.214 147.309 67.8765 147.52 67.4251C147.728 66.9695 147.834 66.4042 147.834 65.7249C147.834 65.0879 147.728 64.5394 147.52 64.0796C147.313 63.6197 147.029 63.2696 146.674 63.0249C146.318 62.7802 145.928 62.6621 145.505 62.6621C145.065 62.6621 144.671 62.7844 144.324 63.0333C143.977 63.2822 143.71 63.6408 143.519 64.1049C143.325 64.569 143.227 65.109 143.227 65.7249Z" fill="white"/>
<path d="M159.367 66.3324H154.663C154.667 66.8767 154.777 67.3576 154.993 67.7711C155.209 68.1887 155.493 68.5009 155.849 68.7118C156.204 68.9228 156.598 69.0283 157.026 69.0283C157.314 69.0283 157.576 68.9945 157.813 68.927C158.05 68.8595 158.283 68.754 158.503 68.6106C158.728 68.4672 158.931 68.3153 159.122 68.1507C159.308 67.9862 159.553 67.7626 159.854 67.4842C159.977 67.3787 160.155 67.3239 160.383 67.3239C160.629 67.3239 160.828 67.3914 160.985 67.5264C161.137 67.6614 161.213 67.8512 161.213 68.0959C161.213 68.3111 161.128 68.5642 160.959 68.8553C160.79 69.1464 160.531 69.4248 160.189 69.6906C159.846 69.9564 159.414 70.18 158.893 70.353C158.372 70.5302 157.775 70.6145 157.098 70.6145C155.552 70.6145 154.35 70.1758 153.495 69.2983C152.635 68.4207 152.207 67.2268 152.207 65.7249C152.207 65.0162 152.313 64.358 152.525 63.7547C152.737 63.1472 153.046 62.6283 153.448 62.198C153.854 61.7635 154.354 61.4344 154.947 61.2024C155.54 60.9703 156.2 60.8564 156.92 60.8564C157.86 60.8564 158.669 61.0547 159.337 61.447C160.011 61.8436 160.515 62.3541 160.849 62.9785C161.183 63.6029 161.353 64.2441 161.353 64.8938C161.353 65.4971 161.179 65.8895 160.832 66.0667C160.481 66.2396 159.994 66.3324 159.367 66.3324ZM154.659 64.9698H159.02C158.961 64.1513 158.74 63.5354 158.355 63.1304C157.97 62.7253 157.462 62.5186 156.835 62.5186C156.234 62.5186 155.743 62.7254 155.358 63.1388C154.976 63.5522 154.744 64.1597 154.659 64.9698Z" fill="white"/>
<path d="M175.774 59.5359H170.617V62.8308H174.927C175.325 62.8308 175.626 62.9194 175.82 63.0966C176.015 63.2738 176.117 63.5143 176.117 63.8138C176.117 64.1133 176.015 64.3496 175.816 64.5268C175.617 64.704 175.321 64.7884 174.927 64.7884H170.617V69.0283C170.617 69.5683 170.494 69.9648 170.253 70.2264C170.007 70.488 169.698 70.6188 169.313 70.6188C168.923 70.6188 168.61 70.488 168.364 70.2222C168.119 69.9606 168 69.5598 168 69.0283V59.1225C168 58.747 168.055 58.4433 168.17 58.207C168.284 57.9708 168.457 57.7978 168.695 57.6881C168.932 57.5784 169.236 57.5236 169.605 57.5236H175.774C176.193 57.5236 176.502 57.6164 176.705 57.802C176.908 57.9876 177.01 58.2281 177.01 58.5276C177.01 58.8314 176.908 59.0761 176.705 59.2617C176.502 59.4431 176.193 59.5359 175.774 59.5359Z" fill="white"/>
<path d="M184.868 69.2645C184.288 69.7159 183.725 70.0534 183.179 70.277C182.637 70.5006 182.027 70.6145 181.35 70.6145C180.732 70.6145 180.19 70.4922 179.724 70.2517C179.258 70.007 178.898 69.678 178.644 69.2645C178.39 68.8511 178.268 68.3997 178.268 67.9103C178.268 67.2564 178.475 66.6953 178.894 66.2312C179.313 65.7671 179.885 65.4591 180.613 65.2988C180.766 65.2651 181.147 65.1849 181.752 65.0626C182.358 64.9402 182.874 64.8263 183.306 64.7251C183.738 64.6238 184.208 64.4972 184.712 64.3538C184.682 63.721 184.555 63.2569 184.326 62.9616C184.098 62.6663 183.632 62.5186 182.921 62.5186C182.311 62.5186 181.85 62.603 181.54 62.7718C181.231 62.9405 180.969 63.1979 180.749 63.5354C180.529 63.8729 180.372 64.1007 180.283 64.2062C180.19 64.3158 179.995 64.3707 179.699 64.3707C179.428 64.3707 179.195 64.2863 178.996 64.1133C178.801 63.9404 178.699 63.721 178.699 63.451C178.699 63.0291 178.848 62.6199 179.148 62.2233C179.449 61.8267 179.915 61.4977 180.55 61.2403C181.185 60.983 181.972 60.8522 182.921 60.8522C183.979 60.8522 184.809 60.9745 185.415 61.2234C186.02 61.4724 186.448 61.8647 186.697 62.4047C186.947 62.9447 187.07 63.6577 187.07 64.5479C187.07 65.109 187.07 65.5857 187.066 65.9781C187.062 66.3704 187.057 66.8049 187.053 67.2859C187.053 67.7373 187.129 68.2056 187.278 68.695C187.426 69.1844 187.502 69.4966 187.502 69.64C187.502 69.8847 187.388 70.1083 187.155 70.3108C186.922 70.5133 186.659 70.6145 186.367 70.6145C186.122 70.6145 185.876 70.5006 185.635 70.2686C185.393 70.0366 185.139 69.7033 184.868 69.2645ZM184.712 65.7966C184.36 65.9274 183.848 66.0624 183.175 66.2059C182.502 66.3493 182.036 66.4548 181.778 66.5223C181.519 66.5898 181.274 66.7206 181.037 66.9188C180.804 67.1171 180.685 67.3871 180.685 67.7415C180.685 68.1043 180.825 68.4123 181.1 68.6697C181.375 68.927 181.739 69.0536 182.184 69.0536C182.658 69.0536 183.099 68.9481 183.501 68.7414C183.903 68.5347 184.199 68.2647 184.386 67.9398C184.602 67.577 184.712 66.9779 184.712 66.1468V65.7966ZM183.264 57.4265H184.453C184.754 57.4265 184.902 57.4687 184.902 57.5573C184.902 57.6037 184.737 57.7936 184.407 58.1268C184.077 58.4601 183.746 58.7808 183.412 59.0845C183.077 59.3883 182.845 59.5739 182.718 59.6372C182.383 59.8059 182.023 59.8903 181.642 59.8903C181.388 59.8903 181.261 59.8186 181.261 59.6709C181.261 59.5697 181.337 59.3967 181.49 59.152L181.888 58.4137C182.116 57.9876 182.315 57.7134 182.489 57.5953C182.662 57.4856 182.921 57.4265 183.264 57.4265Z" fill="white"/>
<path d="M189.644 61.08H189.907V59.6414C189.907 59.2533 189.915 58.9537 189.936 58.7343C189.958 58.515 190.013 58.3251 190.11 58.169C190.203 58.0045 190.339 57.8737 190.517 57.7682C190.694 57.667 190.889 57.6164 191.105 57.6164C191.41 57.6164 191.685 57.7303 191.935 57.9581C192.1 58.11 192.202 58.2956 192.248 58.515C192.291 58.7343 192.316 59.0465 192.316 59.4515V61.0842H193.197C193.535 61.0842 193.798 61.1644 193.976 61.3247C194.154 61.485 194.242 61.6917 194.242 61.9449C194.242 62.2655 194.115 62.4933 193.857 62.6199C193.603 62.7507 193.235 62.8139 192.761 62.8139H192.312V67.2226C192.312 67.5981 192.324 67.885 192.35 68.0875C192.375 68.29 192.447 68.4545 192.562 68.5811C192.676 68.7076 192.862 68.7709 193.12 68.7709C193.26 68.7709 193.451 68.7456 193.692 68.695C193.933 68.6443 194.12 68.619 194.255 68.619C194.45 68.619 194.623 68.695 194.78 68.8511C194.937 69.0072 195.013 69.197 195.013 69.4248C195.013 69.813 194.801 70.1083 194.378 70.3108C193.955 70.5175 193.345 70.6188 192.553 70.6188C191.799 70.6188 191.232 70.4922 190.843 70.2391C190.453 69.9859 190.199 69.64 190.08 69.1928C189.962 68.7498 189.898 68.155 189.898 67.4082V62.8055H189.581C189.234 62.8055 188.971 62.7253 188.789 62.5608C188.607 62.3963 188.514 62.1896 188.514 61.9364C188.514 61.6833 188.611 61.4766 188.802 61.3163C189.005 61.1602 189.28 61.08 189.644 61.08Z" fill="white"/>
<path d="M197.117 59.7553C196.783 59.7553 196.495 59.654 196.258 59.4473C196.021 59.2406 195.902 58.9537 195.902 58.5783C195.902 58.2407 196.025 57.9581 196.266 57.7387C196.512 57.5193 196.795 57.4096 197.117 57.4096C197.431 57.4096 197.706 57.5109 197.947 57.7092C198.188 57.9075 198.307 58.1986 198.307 58.5783C198.307 58.9453 198.188 59.2364 197.956 59.4431C197.723 59.6498 197.443 59.7553 197.117 59.7553ZM198.307 62.2317V69.159C198.307 69.64 198.193 70.0028 197.964 70.2475C197.735 70.4922 197.443 70.6145 197.092 70.6145C196.74 70.6145 196.453 70.488 196.232 70.2348C196.012 69.9817 195.902 69.6231 195.902 69.1548V62.295C195.902 61.8225 196.012 61.4639 196.232 61.2234C196.453 60.983 196.74 60.8648 197.092 60.8648C197.443 60.8648 197.735 60.983 197.964 61.2234C198.193 61.4681 198.307 61.8014 198.307 62.2317Z" fill="white"/>
<path d="M208.795 65.919V69.1084C208.795 69.6105 208.68 69.9902 208.452 70.2433C208.223 70.4964 207.918 70.623 207.546 70.623C207.181 70.623 206.885 70.4964 206.661 70.2433C206.432 69.9902 206.322 69.6147 206.322 69.1084V65.2904C206.322 64.6871 206.301 64.2188 206.258 63.8855C206.216 63.5522 206.106 63.278 205.924 63.0629C205.742 62.8477 205.454 62.7422 205.06 62.7422C204.273 62.7422 203.756 63.0122 203.506 63.5522C203.257 64.0923 203.134 64.8643 203.134 65.8684V69.1084C203.134 69.6062 203.019 69.9817 202.795 70.2349C202.571 70.488 202.27 70.6188 201.902 70.6188C201.538 70.6188 201.241 70.4922 201.008 70.2349C200.775 69.9817 200.661 69.6062 200.661 69.1084V62.2486C200.661 61.7972 200.767 61.4555 200.974 61.2192C201.182 60.9872 201.457 60.8691 201.8 60.8691C202.13 60.8691 202.406 60.9788 202.626 61.1981C202.846 61.4175 202.956 61.7213 202.956 62.1052V62.333C203.375 61.8352 203.82 61.4681 204.294 61.2361C204.768 60.9999 205.297 60.886 205.882 60.886C206.487 60.886 207.008 61.0041 207.44 61.2446C207.876 61.485 208.231 61.8478 208.515 62.333C208.922 61.8394 209.353 61.4766 209.819 61.2403C210.285 61.0041 210.797 60.886 211.36 60.886C212.017 60.886 212.584 61.0167 213.062 61.2741C213.537 61.5314 213.892 61.8985 214.129 62.3794C214.337 62.814 214.438 63.4932 214.438 64.4255V69.1042C214.438 69.6063 214.324 69.9859 214.096 70.2391C213.867 70.4922 213.562 70.6188 213.189 70.6188C212.825 70.6188 212.529 70.4922 212.296 70.2349C212.063 69.9817 211.949 69.6062 211.949 69.1084V65.0795C211.949 64.5648 211.928 64.1513 211.881 63.8391C211.839 63.5269 211.72 63.2696 211.526 63.0586C211.331 62.8477 211.039 62.7422 210.645 62.7422C210.327 62.7422 210.027 62.835 209.743 63.0249C209.459 63.2105 209.235 63.4636 209.078 63.7801C208.884 64.1808 208.795 64.8938 208.795 65.919Z" fill="white"/>
<path d="M222.843 69.2645C222.263 69.7159 221.7 70.0534 221.154 70.277C220.612 70.5006 220.002 70.6145 219.325 70.6145C218.706 70.6145 218.164 70.4922 217.699 70.2517C217.233 70.007 216.873 69.678 216.619 69.2645C216.365 68.8511 216.242 68.3997 216.242 67.9103C216.242 67.2564 216.45 66.6953 216.869 66.2312C217.288 65.7671 217.86 65.4591 218.588 65.2988C218.74 65.2651 219.121 65.1849 219.727 65.0626C220.332 64.9402 220.849 64.8263 221.281 64.7251C221.713 64.6238 222.183 64.4973 222.686 64.3538C222.657 63.721 222.53 63.2569 222.301 62.9616C222.072 62.6663 221.607 62.5186 220.895 62.5186C220.286 62.5186 219.824 62.603 219.515 62.7718C219.206 62.9405 218.944 63.1979 218.723 63.5354C218.503 63.8729 218.347 64.1007 218.258 64.2062C218.164 64.3158 217.97 64.3707 217.673 64.3707C217.402 64.3707 217.169 64.2863 216.97 64.1133C216.776 63.9404 216.674 63.721 216.674 63.451C216.674 63.0291 216.822 62.6199 217.123 62.2233C217.424 61.8267 217.889 61.4977 218.524 61.2403C219.159 60.983 219.947 60.8522 220.895 60.8522C221.954 60.8522 222.784 60.9745 223.389 61.2235C223.995 61.4724 224.422 61.8647 224.672 62.4047C224.922 62.9447 225.045 63.6577 225.045 64.5479C225.045 65.109 225.045 65.5857 225.04 65.9781C225.036 66.3704 225.032 66.805 225.028 67.2859C225.028 67.7373 225.104 68.2056 225.252 68.695C225.4 69.1844 225.477 69.4966 225.477 69.64C225.477 69.8847 225.362 70.1083 225.129 70.3108C224.896 70.5133 224.634 70.6145 224.342 70.6145C224.096 70.6145 223.851 70.5006 223.609 70.2686C223.368 70.0366 223.114 69.7033 222.843 69.2645ZM222.686 65.7967C222.335 65.9274 221.823 66.0624 221.149 66.2059C220.476 66.3493 220.01 66.4548 219.752 66.5223C219.494 66.5898 219.248 66.7206 219.011 66.9189C218.778 67.1171 218.66 67.3871 218.66 67.7415C218.66 68.1043 218.8 68.4123 219.075 68.6697C219.35 68.927 219.714 69.0536 220.159 69.0536C220.633 69.0536 221.073 68.9481 221.475 68.7414C221.878 68.5347 222.174 68.2647 222.36 67.9398C222.576 67.577 222.686 66.9779 222.686 66.1468V65.7967Z" fill="white"/>
<path d="M240.435 68.9397L239.817 67.3239H234.563L233.944 68.9734C233.703 69.6189 233.5 70.0534 233.326 70.277C233.157 70.5006 232.878 70.6145 232.488 70.6145C232.158 70.6145 231.87 70.4964 231.616 70.2559C231.362 70.0155 231.235 69.7455 231.235 69.4375C231.235 69.2603 231.264 69.0789 231.324 68.8933C231.383 68.7076 231.48 68.4461 231.616 68.1128L234.918 59.7553C235.011 59.5148 235.126 59.2279 235.257 58.8904C235.388 58.5529 235.532 58.2745 235.68 58.0509C235.829 57.8273 236.028 57.6501 236.269 57.5109C236.515 57.3717 236.815 57.3042 237.171 57.3042C237.535 57.3042 237.84 57.3717 238.081 57.5109C238.327 57.6501 238.521 57.8273 238.67 58.0425C238.818 58.2576 238.945 58.4897 239.046 58.7386C239.148 58.9875 239.279 59.3208 239.44 59.7342L242.815 68.0411C243.077 68.6739 243.213 69.1337 243.213 69.4206C243.213 69.7201 243.09 69.9944 242.84 70.2433C242.59 70.4922 242.29 70.6145 241.938 70.6145C241.731 70.6145 241.557 70.5766 241.409 70.5048C241.261 70.4331 241.138 70.3319 241.036 70.2053C240.935 70.0787 240.829 69.8847 240.715 69.6273C240.613 69.3658 240.516 69.1379 240.435 68.9397ZM235.253 65.3663H239.114L237.167 60.0548L235.253 65.3663Z" fill="white"/>
<path d="M246.574 70.6145C246.21 70.6145 245.897 70.4964 245.63 70.2644C245.368 70.0281 245.232 69.7033 245.232 69.2814C245.232 68.9228 245.359 68.619 245.613 68.3575C245.867 68.1001 246.176 67.9693 246.549 67.9693C246.922 67.9693 247.235 68.0959 247.497 68.3532C247.76 68.6106 247.891 68.9186 247.891 69.2814C247.891 69.699 247.76 70.0239 247.497 70.2601C247.235 70.4964 246.93 70.6145 246.574 70.6145Z" fill="white"/>
<path d="M261.804 66.3324C261.804 66.7417 261.703 67.1846 261.499 67.6614C261.296 68.1381 260.978 68.6064 260.542 69.0662C260.106 69.5261 259.552 69.8973 258.878 70.1842C258.205 70.4711 257.413 70.6145 256.516 70.6145C255.834 70.6145 255.216 70.5513 254.657 70.4205C254.098 70.2897 253.59 70.0914 253.137 69.8172C252.68 69.543 252.265 69.1844 251.88 68.7414C251.541 68.3364 251.249 67.885 251.007 67.3829C250.766 66.8809 250.584 66.3493 250.466 65.7798C250.347 65.2102 250.283 64.6069 250.283 63.9699C250.283 62.9321 250.436 62.0039 250.736 61.1855C251.037 60.367 251.473 59.6667 252.036 59.0845C252.599 58.5023 253.26 58.0593 254.018 57.7556C254.776 57.4518 255.584 57.3 256.44 57.3C257.485 57.3 258.417 57.5067 259.234 57.9243C260.051 58.342 260.678 58.8525 261.11 59.4642C261.546 60.0759 261.762 60.6539 261.762 61.1981C261.762 61.4977 261.656 61.7592 261.444 61.9871C261.233 62.2149 260.978 62.3288 260.678 62.3288C260.343 62.3288 260.094 62.2486 259.924 62.0925C259.755 61.9364 259.569 61.6622 259.365 61.2741C259.027 60.637 258.624 60.1603 258.163 59.8439C257.701 59.5275 257.134 59.3714 256.457 59.3714C255.381 59.3714 254.526 59.7764 253.887 60.5906C253.247 61.4049 252.93 62.5608 252.93 64.0585C252.93 65.0584 253.069 65.8937 253.353 66.556C253.637 67.2226 254.035 67.7162 254.551 68.0453C255.068 68.3743 255.673 68.5389 256.368 68.5389C257.121 68.5389 257.756 68.3532 258.277 67.982C258.798 67.6107 259.188 67.0623 259.454 66.3451C259.564 66.0076 259.704 65.7291 259.869 65.514C260.034 65.2988 260.297 65.1934 260.661 65.1934C260.974 65.1934 261.241 65.303 261.461 65.5182C261.681 65.7334 261.804 66.0076 261.804 66.3324Z" fill="white"/>
<path d="M264.687 70.6145C264.323 70.6145 264.01 70.4964 263.743 70.2644C263.481 70.0281 263.345 69.7033 263.345 69.2814C263.345 68.9228 263.472 68.619 263.726 68.3575C263.98 68.1001 264.289 67.9693 264.662 67.9693C265.035 67.9693 265.348 68.0959 265.61 68.3532C265.873 68.6106 266.004 68.9186 266.004 69.2814C266.004 69.699 265.873 70.0239 265.61 70.2601C265.348 70.4964 265.039 70.6145 264.687 70.6145Z" fill="white"/>
</g>
<defs>
<clipPath id="clip0">
<rect width="266" height="90" fill="white"/>
</clipPath>
</defs>
</svg>
